<?xml version="1.0" encoding="utf-8"?>
<!-- Generator: Adobe Illustrator 26.0.1, SVG Export Plug-In . SVG Version: 6.00 Build 0)  -->
<svg version="1.1" id="Layer_1" xmlns="http://www.w3.org/2000/svg" xmlns:xlink="http://www.w3.org/1999/xlink" x="0px" y="0px"
	 viewBox="0 0 100 45.99" enable-background="new 0 0 100 45.99" xml:space="preserve">
<path d="M9.94,6.44c0,2.25,0,4.41,0,6.64c5.69,0,11.35,0,17.05,0c0,2.18,0,4.29,0,6.46c-5.66,0-11.3,0-17.05,0
	c0,3.56,0,7.05,0,10.57c-3.37,0-6.64,0-9.94,0C0,20.07,0,10.07,0,0.03c9.69,0,19.35,0,29.03,0c0,2.14,0,4.25,0,6.41
	C22.66,6.44,16.33,6.44,9.94,6.44z"/>
<path d="M42.21,19.54c0,3.57,0,7.04,0,10.56c-3.23,0-6.38,0-9.57,0c0-10.03,0-20.02,0-30.06c9.19,0,18.38,0,27.62,0
	c0,2.1,0,4.21,0,6.38c-5.99,0-11.97,0-18,0c0,2.24,0,4.41,0,6.64c5.31,0,10.61,0,15.96,0c0,2.17,0,4.28,0,6.47
	C52.91,19.54,47.6,19.54,42.21,19.54z"/>
<g>
	<g>
		<path fill="#C4714E" d="M63.39,31.16c0-0.89,0-1.58,0-2.26c0-2.25,0.04-4.5-0.02-6.74c-0.02-0.87,0.23-1.45,0.87-2.04
			c7.17-6.61,14.31-13.24,21.47-19.86c0.14-0.13,0.36-0.25,0.54-0.25C89.78,0,93.31,0,97.04,0C85.79,10.41,74.66,20.72,63.39,31.16z
			"/>
		<path fill="#C4714E" d="M77.79,20.76c1.84-1.71,3.67-3.42,5.57-5.18c4.91,4.82,9.8,9.62,14.78,14.51
			c-0.27,0.03-0.42,0.06-0.57,0.06c-3.3,0-6.59,0.01-9.89-0.01c-0.27,0-0.61-0.11-0.79-0.29c-2.96-2.91-5.9-5.84-8.84-8.77
			C77.96,20.99,77.89,20.88,77.79,20.76z"/>
		<path fill="#C4714E" d="M63.41,17.9c0-6.01,0-11.91,0-17.86c2.79,0,5.57,0,8.4,0c0.01,0.17,0.04,0.36,0.04,0.54
			c0.01,3.02,0.02,6.03-0.01,9.05c0,0.3-0.16,0.68-0.37,0.88c-2.58,2.4-5.18,4.78-7.78,7.17C63.63,17.73,63.57,17.77,63.41,17.9z"/>
	</g>
</g>
<g>
	<path d="M88.29,45.7c0-3.94,0-7.82,0-11.81c0.97,0,1.92-0.02,2.87,0.02c0.17,0.01,0.35,0.22,0.48,0.37
		c1.49,1.76,2.96,3.54,4.45,5.31c0.12,0.14,0.25,0.27,0.48,0.53c0-2.13,0-4.13,0-6.17c1.17,0,2.27,0,3.43,0c0,3.9,0,7.81,0,11.8
		c-0.9,0-1.79,0.02-2.68-0.02c-0.18-0.01-0.39-0.22-0.53-0.38c-1.59-1.88-3.16-3.76-4.73-5.65c-0.07-0.08-0.08-0.2-0.12-0.31
		c-0.07,0.04-0.14,0.09-0.2,0.13c0,2.05,0,4.09,0,6.18C90.55,45.7,89.43,45.7,88.29,45.7z"/>
	<path d="M62.27,45.69c0-3.94,0-7.83,0-11.76c1.15,0,2.27,0,3.47,0c0,1.38,0,2.76,0,4.18c1.63,0,3.18,0,4.78,0c0-1.38,0-2.74,0-4.16
		c1.19,0,2.33,0,3.5,0c0,3.92,0,7.83,0,11.76c-1.16,0-2.28,0-3.47,0c0-1.57,0-3.1,0-4.67c-1.62,0-3.17,0-4.8,0c0,1.55,0,3.1,0,4.66
		C64.54,45.69,63.4,45.69,62.27,45.69z"/>
	<path d="M30.97,45.74c-1.4,0-2.67,0.01-3.95-0.01c-0.14,0-0.31-0.19-0.42-0.32c-1.06-1.34-2.12-2.68-3.14-3.98
		c-2.01,0.92-1.34,2.72-1.49,4.29c-1.16,0-2.3,0-3.48,0c0-3.92,0-7.83,0-11.78c1.16,0,2.3,0,3.5,0c0,1.56,0,3.09,0,4.38
		c0.85-0.76,1.81-1.59,2.74-2.46c0.56-0.52,1.06-1.11,1.6-1.65c0.15-0.15,0.39-0.29,0.6-0.3c1.17-0.03,2.35-0.01,3.68-0.01
		c-1.69,1.76-3.29,3.43-4.95,5.16C27.41,41.25,29.15,43.45,30.97,45.74z"/>
	<path d="M76.45,33.92c3.26,0,6.48,0,9.75,0c0,0.85,0,1.68,0,2.56c-2.08,0-4.14,0-6.25,0c0,0.65,0,1.24,0,1.9c1.8,0,3.6,0,5.45,0
		c0,0.88,0,1.68,0,2.56c-0.96,0-1.9,0-2.83,0c-0.28,0-0.56,0-0.83,0c-1.98-0.01-1.98-0.01-1.79,2.07c2.14,0,4.28,0,6.49,0
		c0,0.93,0,1.79,0,2.69c-3.31,0-6.62,0-9.97,0C76.45,41.8,76.45,37.9,76.45,33.92z"/>
	<path d="M58.48,41.65c0.74,0.65,1.44,1.27,2.17,1.92c-0.46,0.75-1.12,1.25-1.85,1.65c-2.36,1.28-5.98,0.94-8.05-0.77
		c-1.81-1.5-2.45-3.47-2.06-5.74c0.4-2.34,1.83-3.89,4.05-4.62c2.46-0.81,4.85-0.61,7.01,0.96c0.21,0.15,0.39,0.34,0.57,0.52
		c0.1,0.1,0.19,0.23,0.31,0.38c-0.73,0.65-1.44,1.29-2.22,1.98c-0.98-1.09-2.17-1.64-3.65-1.38c-0.81,0.14-1.48,0.53-1.99,1.19
		c-1.03,1.33-0.85,3.48,0.41,4.55C54.4,43.3,56.56,43.74,58.48,41.65z"/>
	<path d="M40.66,45.71c0-3.07,0-6.06,0-9.15c-1.28,0-2.53,0-3.8,0c0-0.92,0-1.75,0-2.63c3.69,0,7.36,0,11.08,0c0,0.83,0,1.68,0,2.6
		c-1.22,0-2.45,0-3.76,0c0,3.1,0,6.12,0,9.18C42.98,45.71,41.86,45.71,40.66,45.71z"/>
	<path d="M31.97,33.92c1.15,0,2.26,0,3.42,0c0,3.94,0,7.84,0,11.78c-1.13,0-2.25,0-3.42,0C31.97,41.8,31.97,37.9,31.97,33.92z"/>
</g>
<path fill="#C4714E" d="M14.37,36.53c-0.11,0.47-0.22,0.93-0.33,1.4c-0.23,1.01-0.46,2.01-0.7,3.02c-0.13,0.56-0.52,0.86-1.11,0.86
	c-2.63,0-5.26,0-7.89,0c-0.06,0-0.12,0-0.18,0c-0.26,0.02-0.44,0.22-0.44,0.47c0,0.26,0.18,0.44,0.45,0.46c0.06,0,0.11,0,0.17,0
	c2.71,0,5.43,0,8.14,0c0.04,0,0.08,0,0.13,0c0.21,0.01,0.37,0.13,0.42,0.31c0.05,0.19-0.03,0.36-0.21,0.48
	c-0.02,0.01-0.03,0.02-0.06,0.03c0.17,0.39,0.2,0.78,0.04,1.18c-0.11,0.28-0.29,0.51-0.54,0.68c-0.5,0.34-1.16,0.34-1.66,0
	c-0.57-0.4-0.73-0.94-0.52-1.83c-0.87,0-1.74,0-2.62,0c0.17,0.4,0.18,0.79,0.02,1.19c-0.12,0.28-0.31,0.51-0.57,0.67
	c-0.51,0.33-1.18,0.3-1.67-0.06c-0.54-0.4-0.7-0.98-0.47-1.8c-0.05,0-0.1-0.01-0.15-0.01c-0.24-0.01-0.48,0.01-0.71-0.03
	c-0.64-0.12-1.08-0.71-1.05-1.34c0.04-0.65,0.53-1.16,1.18-1.23c0.02,0,0.04-0.01,0.08-0.01c-0.09-0.34-0.18-0.67-0.27-1
	c-0.54-2-1.08-3.99-1.61-5.99c-0.05-0.2-0.08-0.22-0.29-0.22c-0.48,0-0.97,0-1.45,0c-0.34,0-0.55-0.28-0.44-0.57
	c0.06-0.16,0.18-0.27,0.36-0.27c0.58,0,1.17-0.01,1.75,0.01c0.4,0.01,0.74,0.33,0.86,0.74c0.16,0.57,0.31,1.14,0.46,1.71
	c0.03,0.1,0.06,0.13,0.17,0.13c2.21,0.01,4.42,0.02,6.63,0.03c1.01,0,2.02,0.02,3.04,0.01c0.48-0.01,0.87,0.13,1.04,0.71
	C14.37,36.34,14.37,36.44,14.37,36.53z M3.76,36.35c0.17,0.62,0.33,1.22,0.49,1.82c0.02,0.08,0.07,0.09,0.14,0.09
	c0.47,0,0.93,0,1.4,0c0.03,0,0.07-0.01,0.11-0.01c-0.01-0.07-0.01-0.12-0.02-0.18c-0.07-0.53-0.15-1.06-0.21-1.59
	c-0.01-0.1-0.04-0.12-0.14-0.12c-0.37,0-0.75,0-1.12,0C4.21,36.35,3.99,36.35,3.76,36.35z M9.21,36.38c0,0.63,0,1.25,0,1.87
	c0.02,0.01,0.03,0.01,0.05,0.01c0.48,0,0.97,0,1.45,0c0.08,0,0.1-0.04,0.11-0.11c0.05-0.42,0.11-0.84,0.17-1.26
	c0.02-0.17,0.04-0.34,0.06-0.52C10.42,36.38,9.82,36.38,9.21,36.38z M6.51,36.37c0.09,0.64,0.17,1.26,0.25,1.88
	c0.54,0,1.06,0,1.59,0c0-0.63,0-1.26,0-1.88C7.73,36.37,7.13,36.37,6.51,36.37z M13.54,36.38c-0.54,0-1.05,0-1.56,0
	c-0.09,0-0.09,0.06-0.1,0.12c-0.06,0.47-0.12,0.93-0.19,1.4c-0.02,0.12-0.02,0.23-0.04,0.36c0.47,0,0.92,0,1.37,0
	c0.03,0,0.09-0.05,0.1-0.08C13.26,37.58,13.39,37,13.54,36.38z M4.5,39.1c0.16,0.59,0.31,1.16,0.48,1.73
	c0.02,0.06,0.11,0.13,0.17,0.14c0.37,0.01,0.73,0.01,1.1,0.01c0-0.03,0.01-0.06,0-0.08c-0.07-0.57-0.15-1.14-0.23-1.71
	c0-0.03-0.06-0.07-0.09-0.07C5.47,39.1,5,39.1,4.5,39.1z M9.21,40.97c0.4,0,0.78,0,1.16,0c0.03,0,0.08-0.06,0.09-0.1
	c0.05-0.33,0.09-0.66,0.14-1c0.03-0.25,0.06-0.5,0.1-0.76c-0.5,0-0.99,0-1.48,0C9.21,39.73,9.21,40.34,9.21,40.97z M6.87,39.11
	c0.08,0.6,0.16,1.19,0.23,1.77c0.01,0.08,0.05,0.1,0.12,0.1c0.32,0,0.63,0,0.95,0c0.06,0,0.12,0,0.17,0c0-0.64,0-1.25,0-1.87
	C7.85,39.11,7.37,39.11,6.87,39.11z M11.29,40.97c0.33,0,0.65,0,0.96,0c0.18,0,0.23-0.05,0.28-0.23c0.06-0.27,0.13-0.54,0.19-0.82
	c0.06-0.27,0.12-0.54,0.19-0.82c-0.46,0-0.91,0-1.37,0C11.46,39.73,11.37,40.34,11.29,40.97z M6.13,44.85
	c0.35,0,0.63-0.29,0.63-0.64c-0.01-0.34-0.29-0.62-0.63-0.62c-0.35,0-0.63,0.28-0.63,0.63C5.5,44.57,5.78,44.85,6.13,44.85z
	 M11.43,44.85c0.35,0,0.63-0.28,0.63-0.63c0-0.35-0.29-0.63-0.63-0.63c-0.34,0-0.62,0.28-0.62,0.62
	C10.8,44.56,11.08,44.85,11.43,44.85z"/>
</svg>
